<?xml version="1.0" encoding="UTF-8"?><svg xmlns="http://www.w3.org/2000/svg" xmlns:xlink="http://www.w3.org/1999/xlink" viewBox="0 0 147.64 171.69"><defs><style>.cls-1,.cls-2,.cls-3{fill:#43405d;}.cls-2{opacity:.6;}.cls-2,.cls-4,.cls-5,.cls-6{mix-blend-mode:multiply;}.cls-7{fill:#5b7b7e;}.cls-8{isolation:isolate;}.cls-4{fill:#d3d1e9;}.cls-9{fill:url(#linear-gradient-2);}.cls-9,.cls-3{mix-blend-mode:screen;}.cls-10{fill:#fff;}.cls-11{fill:#020012;}.cls-5{fill:url(#linear-gradient);}.cls-6{fill:#caebf7;}</style><linearGradient id="linear-gradient" x1="73.82" y1="53.7" x2="73.82" y2="136.61" gradientUnits="userSpaceOnUse"><stop offset="0" stop-color="#fff"/><stop offset="1" stop-color="#9ba4d3"/></linearGradient><linearGradient id="linear-gradient-2" x1="60.06" y1="45.94" x2="29.76" y2="7.73" xlink:href="#linear-gradient"/></defs><g class="cls-8"><g id="Capa_2"><g id="Layer_1"><path class="cls-1" d="M142.63,156.36c-.24-.32-16.52-25.23-16.52-25.23l-97.31-1.51-7.26,1.51-16.53,25.24h0c-.41.57-.63,1.16-.63,1.75,0,7.21,31.09,13.05,69.44,13.05s69.44-5.84,69.44-13.05c0-.6-.22-1.19-.63-1.76Z"/><path d="M73.82,171.69c-34.39,0-69.96-5.07-69.96-13.57,0-.69.25-1.39.73-2.06l16.51-25.22c.08-.12.2-.2.33-.23l7.26-1.51s.08-.01.11,0l97.31,1.51c.17,0,.33.09.43.24,5.59,8.55,16.23,24.82,16.51,25.21.49.67.73,1.37.73,2.07,0,8.49-35.57,13.57-69.96,13.57ZM21.85,131.59l-16.41,25.06c-.36.51-.54,1-.54,1.47,0,6.05,27.69,12.53,68.92,12.53,18.52,0,35.92-1.35,49.01-3.81,12.47-2.34,19.92-5.6,19.92-8.71,0-.47-.18-.96-.53-1.46-.23-.31-14.14-21.58-16.39-25.02l-96.98-1.5-6.99,1.45Z"/><path class="cls-3" d="M36.06,142.02c9.58,1.76,19.54,1.82,29.25,1.78,8.74-.04,17.49-.38,26.21-1.16,4.79-.43,9.58-.95,14.34-1.63,3.51-.51,7.07-1.34,10.62-1.45,6.84-.21,11.6,2.74,15.54,8.23,3.2,4.46,5.51,9.42,7.88,14.35,2.18-1.27,3.37-2.62,3.37-4.02,0-.6-.22-1.19-.63-1.76-.24-.32-16.52-25.23-16.52-25.23l-97.31-1.51-7.26,1.51-1.18,1.8c1.56,5.73,10.09,8.06,15.7,9.1Z"/><path class="cls-2" d="M13.61,164.62c6.16-11.52,11.83-23.32,17.76-34.97l-2.58-.04-7.26,1.51-16.53,25.24c-.41.57-.63,1.16-.63,1.75,0,2.37,3.36,4.59,9.23,6.5Z"/><path class="cls-3" d="M58.8,130.08l-9.74-.15c-2.04,8.56-4.51,17.01-6.91,25.48-1.31,4.62-2.41,9.29-3.53,13.95,4.8.53,9.98.96,15.43,1.26,1.82-13.48,2.91-27.07,4.75-40.55Z"/><path class="cls-2" d="M142.63,156.36c-.24-.32-16.52-25.23-16.52-25.23l-14.5-.22c4.2,12.09,8.74,24.07,13.17,36.08,11.47-2.33,18.48-5.44,18.48-8.86,0-.6-.22-1.19-.63-1.76Z"/><path class="cls-11" d="M126.11,131.12c0,5.43-23.41,9.82-52.29,9.82s-52.28-4.4-52.28-9.82,23.41-9.82,52.28-9.82,52.29,4.4,52.29,9.82Z"/><path d="M73.82,141.47c-25.96,0-52.81-3.87-52.81-10.35s26.85-10.34,52.81-10.34,52.81,3.87,52.81,10.34-26.85,10.35-52.81,10.35ZM73.82,121.82c-30.96,0-51.76,4.81-51.76,9.3s20.8,9.3,51.76,9.3,51.77-4.81,51.77-9.3-20.8-9.3-51.77-9.3Z"/><path class="cls-10" d="M73.82.52C33.34.52.52,33.34.52,73.82c0,21.43,9.2,40.71,23.86,54.11,4.5,4.11,9.52,7.67,14.94,10.57,9.21,1.52,21.28,2.45,34.5,2.45s25.3-.92,34.51-2.45c5.42-2.9,10.44-6.46,14.94-10.57,14.66-13.4,23.86-32.68,23.86-54.11C147.12,33.34,114.3.52,73.82.52Z"/><path class="cls-7" d="M73.82,141.47c-12.73,0-25.02-.87-34.59-2.45-.05,0-.11-.03-.16-.06-5.43-2.9-10.49-6.49-15.04-10.65C8.76,114.35,0,94.49,0,73.82,0,33.11,33.12,0,73.82,0s73.82,33.11,73.82,73.82c0,20.67-8.76,40.53-24.03,54.49-4.55,4.16-9.61,7.74-15.04,10.65-.05.03-.11.05-.16.06-9.57,1.58-21.86,2.45-34.59,2.45ZM39.49,138c9.5,1.56,21.69,2.43,34.33,2.43s24.83-.86,34.34-2.43c5.33-2.86,10.29-6.37,14.76-10.46,15.05-13.76,23.69-33.34,23.69-53.72C146.6,33.69,113.95,1.04,73.82,1.04S1.04,33.69,1.04,73.82c0,20.38,8.63,39.96,23.69,53.72,4.46,4.08,9.43,7.6,14.76,10.46Z"/><path class="cls-6" d="M73.82.52C33.34.52.52,33.34.52,73.82c0,21.43,9.2,40.71,23.86,54.11,4.5,4.11,9.52,7.67,14.94,10.57,9.21,1.52,21.28,2.45,34.5,2.45s25.3-.92,34.51-2.45c5.42-2.9,10.44-6.46,14.94-10.57,14.66-13.4,23.86-32.68,23.86-54.11C147.12,33.34,114.3.52,73.82.52Z"/><path class="cls-5" d="M73.82,7.62C35.38,7.62,4.23,38.77,4.23,77.21c0,20.35,8.73,38.65,22.65,51.37,4.27,3.91,9.04,7.29,14.18,10.04,8.74,1.45,20.2,2.32,32.76,2.32s24.02-.88,32.76-2.32c5.15-2.75,9.91-6.13,14.18-10.04,13.92-12.72,22.65-31.03,22.65-51.37,0-38.44-31.16-69.59-69.6-69.59Z"/><path class="cls-4" d="M105.32,7.62c14.93,14.79,17.26,37.09,11.43,57.12-3.54,12.17-10.66,23.48-20.83,31.2-10.59,8.04-22.78,10.75-35.87,9.12-24.26-3.02-49.78-19.25-51.9-45.57-.67-8.25.6-16.91,3.68-24.79C4.67,46.02.52,59.43.52,73.82c0,21.43,9.2,40.71,23.86,54.11,4.5,4.11,9.52,7.67,14.94,10.57,9.21,1.52,21.28,2.45,34.5,2.45s25.3-.92,34.51-2.45c5.42-2.9,10.44-6.46,14.94-10.57,14.66-13.4,23.86-32.68,23.86-54.11,0-29.21-17.09-54.42-41.8-66.2Z"/><path class="cls-4" d="M145.83,60.09c-.25,9.38-2.05,18.61-6.48,27.3-8.06,15.84-23.09,27.49-39.8,33.12-23.75,8-54.42,4.83-73.68-12.22-11.06-9.79-17.35-23.44-19.37-37.95-1.25-9.01-.77-18.13.69-27.1C2.92,52.54.52,62.9.52,73.82c0,21.43,9.2,40.71,23.86,54.11,4.5,4.11,9.52,7.67,14.94,10.57,9.21,1.52,21.28,2.45,34.5,2.45s25.3-.92,34.51-2.45c5.42-2.9,10.44-6.46,14.94-10.57,14.66-13.4,23.86-32.68,23.86-54.11,0-4.69-.45-9.28-1.29-13.73Z"/><path class="cls-9" d="M45.31,21.28c7.44-4.39,15.38-7.63,23.71-9.88,2.07-.56,4.15-1.12,6.24-1.6-1.73-.98-3.78-1.55-5.49-1.95-20.23-4.7-40.57,11.42-50.82,27.59-2.32,3.67-2.99,8.01-1.76,11.76,7.98-10.06,16.95-19.33,28.11-25.92Z"/><path class="cls-10" d="M114.83,63.13c.11-.85.24-1.75.89-2.37.05-.05.1-.09.14-.13.12-.14.25-.26.41-.37.32-.23.68-.35,1.06-.44.19-.06.38-.12.58-.16-.74-.31-1.48-.68-1.98-1.32-.86-1.1-1.34-2.45-1.55-3.83-.21,1.48-.68,2.93-1.62,4.05-.34.4-.73.78-1.15,1.11.54.16,1.06.41,1.5.78.68.57,1.09,1.32,1.31,2.17.14.54.24,1.08.3,1.63.03-.37.06-.75.11-1.12Z"/><path class="cls-10" d="M89.76,103.16c.1-.8.23-1.66.84-2.25.05-.04.09-.09.14-.12.11-.13.24-.25.39-.35.3-.22.65-.34,1-.42.18-.06.36-.11.55-.15-.7-.29-1.4-.64-1.87-1.25-.82-1.04-1.27-2.31-1.47-3.62-.2,1.4-.64,2.78-1.54,3.84-.32.38-.69.74-1.09,1.05.51.16,1,.39,1.42.73.64.54,1.03,1.25,1.24,2.05.14.51.23,1.03.29,1.55.03-.35.06-.71.1-1.06Z"/><path class="cls-10" d="M38.69,77.83c.1-.8.23-1.66.84-2.25.05-.04.09-.08.14-.12.11-.13.24-.24.39-.35.3-.22.65-.34,1-.42.18-.06.36-.11.55-.15-.7-.29-1.4-.64-1.87-1.25-.81-1.04-1.27-2.32-1.47-3.62-.2,1.4-.64,2.78-1.54,3.84-.32.38-.69.74-1.09,1.05.51.16,1,.39,1.42.74.64.54,1.03,1.25,1.24,2.05.14.51.23,1.03.29,1.55.02-.36.06-.71.1-1.06Z"/><path class="cls-10" d="M78.55,48.85c.07-.58.17-1.19.61-1.62.03-.03.07-.06.1-.09.08-.09.17-.18.28-.25.22-.15.46-.24.72-.3.13-.04.26-.08.39-.11-.5-.21-1.01-.46-1.35-.9-.59-.75-.91-1.67-1.06-2.61-.15,1.01-.46,2-1.11,2.76-.23.28-.5.53-.78.76.37.11.72.28,1.02.53.46.39.74.9.89,1.48.1.37.16.74.21,1.11.02-.25.04-.51.07-.76Z"/><path class="cls-10" d="M60.99,110.1c.07-.58.17-1.19.61-1.62.03-.03.06-.06.1-.09.08-.09.17-.18.28-.25.22-.16.47-.24.72-.3.13-.04.26-.08.39-.11-.5-.21-1.01-.46-1.35-.9-.59-.75-.91-1.67-1.06-2.61-.15,1.01-.46,2-1.11,2.76-.24.28-.5.53-.79.76.37.11.72.28,1.02.53.46.39.74.9.9,1.48.1.37.16.74.21,1.11.02-.26.04-.51.07-.76Z"/><path class="cls-10" d="M85.86,76.84c.07-.58.17-1.19.61-1.62.03-.03.07-.06.1-.09.08-.09.17-.18.28-.25.22-.15.46-.24.72-.3.13-.04.26-.08.4-.11-.5-.21-1.01-.46-1.35-.9-.59-.75-.91-1.67-1.06-2.61-.15,1.01-.46,2-1.11,2.76-.23.28-.5.53-.78.76.37.11.72.28,1.02.53.46.39.74.9.89,1.48.1.37.16.74.21,1.11.02-.25.04-.51.07-.76Z"/><path class="cls-10" d="M111.66,124.73c.07-.58.17-1.2.61-1.62.03-.03.07-.06.1-.09.08-.09.17-.18.28-.25.22-.16.47-.24.72-.3.13-.04.26-.08.39-.11-.5-.21-1.01-.46-1.35-.9-.59-.75-.91-1.67-1.06-2.61-.15,1.01-.46,2-1.11,2.76-.23.28-.5.53-.78.76.37.11.72.28,1.02.53.46.39.74.9.89,1.48.1.37.16.74.21,1.11.02-.25.04-.51.08-.76Z"/><path class="cls-10" d="M33.57,115.31c.07-.58.17-1.19.61-1.62.03-.03.07-.06.1-.09.08-.09.17-.18.28-.25.22-.16.46-.24.72-.3.13-.04.26-.08.4-.11-.5-.21-1.01-.46-1.35-.9-.59-.75-.91-1.67-1.06-2.61-.14,1.01-.46,2-1.11,2.76-.23.28-.5.53-.78.76.37.11.72.28,1.02.53.46.39.74.9.89,1.47.1.37.16.74.21,1.11.02-.25.04-.51.07-.76Z"/><path class="cls-10" d="M102.65,34.83c.06-.48.14-.99.5-1.34.03-.03.06-.05.08-.07.07-.08.15-.15.23-.21.18-.13.39-.2.6-.25.11-.04.22-.07.33-.09-.42-.17-.83-.38-1.12-.75-.48-.62-.75-1.38-.87-2.16-.12.84-.38,1.65-.92,2.29-.19.23-.41.44-.65.63.31.09.6.23.84.44.38.32.62.74.74,1.22.08.3.13.61.17.92.02-.21.04-.42.06-.63Z"/></g></g></g></svg>